# xmcd
#
# Track frame offsets: 
#        150
#        19584
#        34094
#        48751
#        67021
#        83206
#        103058
#        114793
#        130076
#        143745
#        158995
#        174126
#        193975
#        212916
#        228256
#        248020
#        264274
#        280836
#        298927
#        314346
#        329693
#
# Disc length: 4595 seconds
#
# Revision: 3
# Processed by: cddbd v1.5.2PL0 Copyright (c) Steve Scherf et al.
# Submitted via: ExactAudioCopy v1.1
#
DISCID=2c11f115
DTITLE=WDR - Karneval der Stars 47
DYEAR=2017
DGENRE=Pop
TTITLE0=Brings - Liebe gewinnt
TTITLE1=Rockemarieche - Ovends wenn et dunkel weed
TTITLE2=Bläck Fööss - Lommer nimmih lommer sage
TTITLE3=Kasalla - Könning vun Kölle
TTITLE4=Paveier - Liebe auf den ersten Blick
TTITLE5=Klüngelköpp - Bella Ciao
TTITLE6=J.P. Weber - Irjendeiner fingk et schön
TTITLE7=Räuber - Für die Iwigkeit
TTITLE8=Marita Köllner - Dat wor en schöne Zick
TTITLE9=Kuhl und de Gäng - Naach zom Daach
TTITLE10=Höhner - Wir sind für die Liebe gemacht
TTITLE11=Cat Ballou - Mir fiere et Levve
TTITLE12=Miljö - Kölsch statt Käsch
TTITLE13=Kempes Feinest - Melodie
TTITLE14=Kasalla - Dat Veedel dat fählt
TTITLE15=Querbeat - Guten Morgen Barbarossaplatz
TTITLE16=Mo-Torres, Cat Ballou, Lukas Podolski - Liebe deine Stadt
TTITLE17=Fiasko - Schwerelos
TTITLE18=Bläck Fööss - Op dä eetste Bleck
TTITLE19=Paveier - Dat es Freiheit
TTITLE20=Bernd Stelter - Ausgeh'n
EXTD=
EXTT0=
EXTT1=
EXTT2=
EXTT3=
EXTT4=
EXTT5=
EXTT6=
EXTT7=
EXTT8=
EXTT9=
EXTT10=
EXTT11=
EXTT12=
EXTT13=
EXTT14=
EXTT15=
EXTT16=
EXTT17=
EXTT18=
EXTT19=
EXTT20=
PLAYORDER=
